<svg xmlns="http://www.w3.org/2000/svg" xmlns:xlink="http://www.w3.org/1999/xlink" width="534" zoomAndPan="magnify" viewBox="0 0 400.5 388.499989" height="518" preserveAspectRatio="xMidYMid meet" version="1.0"><defs><clipPath id="b698fdd386"><path d="M 84.84375 165.007812 L 314.800781 165.007812 L 314.800781 222.683594 L 84.84375 222.683594 Z M 84.84375 165.007812 " clip-rule="nonzero"/></clipPath></defs><g clip-path="url(#b698fdd386)"><path fill="#386641" d="M 113.605469 165.007812 C 97.714844 165.007812 84.84375 177.878906 84.84375 193.769531 C 84.84375 209.660156 97.714844 222.53125 113.605469 222.53125 C 129.496094 222.53125 142.367188 209.660156 142.367188 193.769531 C 142.367188 177.878906 129.496094 165.007812 113.605469 165.007812 Z M 286.179688 165.007812 C 270.285156 165.007812 257.417969 177.878906 257.417969 193.769531 C 257.417969 209.660156 270.285156 222.53125 286.179688 222.53125 C 302.070312 222.53125 314.941406 209.660156 314.941406 193.769531 C 314.941406 177.878906 302.070312 165.007812 286.179688 165.007812 Z M 199.890625 165.007812 C 184 165.007812 171.128906 177.878906 171.128906 193.769531 C 171.128906 209.660156 184 222.53125 199.890625 222.53125 C 215.785156 222.53125 228.65625 209.660156 228.65625 193.769531 C 228.65625 177.878906 215.785156 165.007812 199.890625 165.007812 Z M 199.890625 165.007812 " fill-opacity="1" fill-rule="nonzero"/></g></svg>