<svg xmlns="http://www.w3.org/2000/svg" xmlns:xlink="http://www.w3.org/1999/xlink" width="534" zoomAndPan="magnify" viewBox="0 0 400.5 388.499989" height="518" preserveAspectRatio="xMidYMid meet" version="1.0"><defs><clipPath id="c556e64fea"><path d="M 84.84375 78.71875 L 314.800781 78.71875 L 314.800781 308.671875 L 84.84375 308.671875 Z M 84.84375 78.71875 " clip-rule="nonzero"/></clipPath></defs><g clip-path="url(#c556e64fea)"><path fill="#386641" d="M 131.183594 178.363281 C 149.589844 214.539062 179.183594 244.132812 215.425781 262.539062 L 243.546875 234.351562 C 247.0625 230.835938 252.109375 229.8125 256.519531 231.21875 C 270.839844 235.949219 286.242188 238.507812 302.15625 238.507812 C 309.25 238.507812 314.941406 244.195312 314.941406 251.289062 L 314.941406 296.03125 C 314.941406 303.125 309.25 308.8125 302.15625 308.8125 C 182.125 308.8125 84.84375 211.535156 84.84375 91.503906 C 84.84375 84.40625 90.597656 78.71875 97.628906 78.71875 L 142.367188 78.71875 C 149.464844 78.71875 155.152344 84.40625 155.152344 91.503906 C 155.152344 107.417969 157.707031 122.820312 162.4375 137.136719 C 163.84375 141.546875 162.820312 146.597656 159.304688 150.113281 Z M 131.183594 178.363281 " fill-opacity="1" fill-rule="nonzero"/></g></svg>