<svg xmlns="http://www.w3.org/2000/svg" xmlns:xlink="http://www.w3.org/1999/xlink" width="534" zoomAndPan="magnify" viewBox="0 0 400.5 388.499989" height="518" preserveAspectRatio="xMidYMid meet" version="1.0"><defs><clipPath id="eb92dde3b2"><path d="M 84.84375 78.71875 L 314.800781 78.71875 L 314.800781 308.671875 L 84.84375 308.671875 Z M 84.84375 78.71875 " clip-rule="nonzero"/></clipPath></defs><g clip-path="url(#eb92dde3b2)"><path fill="#386641" d="M 199.890625 91.503906 C 197.9375 91.5 195.984375 91.554688 194.03125 91.664062 C 192.078125 91.773438 190.128906 91.9375 188.1875 92.160156 C 186.246094 92.382812 184.308594 92.660156 182.382812 92.992188 C 180.457031 93.324219 178.539062 93.710938 176.632812 94.152344 C 174.730469 94.59375 172.839844 95.089844 170.960938 95.640625 C 169.085938 96.191406 167.226562 96.792969 165.382812 97.453125 C 163.542969 98.109375 161.722656 98.816406 159.917969 99.578125 C 158.117188 100.339844 156.339844 101.152344 154.585938 102.015625 C 152.832031 102.878906 151.101562 103.792969 149.398438 104.753906 C 147.695312 105.714844 146.023438 106.726562 144.378906 107.785156 C 142.734375 108.84375 141.121094 109.945312 139.539062 111.097656 C 137.957031 112.246094 136.410156 113.441406 134.898438 114.679688 C 133.386719 115.921875 131.910156 117.203125 130.46875 118.527344 C 129.03125 119.847656 127.628906 121.214844 126.269531 122.617188 C 124.90625 124.019531 123.589844 125.460938 122.308594 126.941406 C 121.03125 128.421875 119.796875 129.9375 118.605469 131.488281 C 117.410156 133.039062 116.265625 134.621094 115.164062 136.238281 C 114.0625 137.851562 113.007812 139.5 112.003906 141.175781 C 110.996094 142.851562 110.035156 144.554688 109.128906 146.285156 C 108.21875 148.019531 107.359375 149.773438 106.550781 151.554688 C 105.742188 153.335938 104.984375 155.136719 104.28125 156.960938 C 103.574219 158.785156 102.921875 160.628906 102.324219 162.488281 C 101.722656 164.351562 101.175781 166.226562 100.683594 168.121094 C 100.191406 170.011719 99.753906 171.917969 99.371094 173.835938 C 98.988281 175.753906 98.660156 177.679688 98.386719 179.617188 C 98.113281 181.554688 97.898438 183.496094 97.738281 185.445312 C 97.574219 187.394531 97.46875 189.34375 97.421875 191.300781 C 97.371094 193.253906 97.378906 195.210938 97.441406 197.164062 C 97.503906 199.117188 97.621094 201.070312 97.792969 203.019531 C 97.96875 204.964844 98.199219 206.90625 98.484375 208.839844 C 98.769531 210.777344 99.109375 212.699219 99.507812 214.617188 C 99.902344 216.53125 100.351562 218.433594 100.855469 220.324219 C 101.363281 222.210938 101.921875 224.085938 102.53125 225.941406 C 103.144531 227.800781 103.808594 229.636719 104.527344 231.457031 C 105.242188 233.277344 106.011719 235.074219 106.832031 236.847656 C 107.652344 238.625 108.523438 240.375 109.445312 242.097656 C 110.363281 243.824219 111.335938 245.523438 112.351562 247.191406 C 113.371094 248.863281 114.433594 250.5 115.546875 252.109375 C 116.660156 253.71875 117.816406 255.292969 119.019531 256.835938 C 120.21875 258.378906 121.464844 259.886719 122.753906 261.355469 C 124.042969 262.828125 125.371094 264.261719 126.742188 265.65625 C 128.113281 267.050781 129.523438 268.40625 130.96875 269.71875 C 132.417969 271.035156 133.902344 272.304688 135.425781 273.535156 C 136.945312 274.761719 138.5 275.949219 140.089844 277.085938 C 141.679688 278.226562 143.296875 279.320312 144.949219 280.367188 C 146.601562 281.414062 148.28125 282.414062 149.988281 283.367188 C 151.699219 284.316406 153.433594 285.21875 155.195312 286.070312 C 156.953125 286.921875 158.738281 287.722656 160.542969 288.46875 C 162.351562 289.21875 164.175781 289.917969 166.023438 290.5625 C 167.867188 291.207031 169.730469 291.796875 171.613281 292.335938 C 173.492188 292.875 175.386719 293.355469 177.292969 293.785156 C 179.203125 294.214844 181.121094 294.589844 183.050781 294.910156 C 184.980469 295.230469 186.914062 295.492188 188.859375 295.703125 C 190.804688 295.910156 192.753906 296.0625 194.707031 296.160156 C 196.660156 296.257812 198.613281 296.296875 200.570312 296.28125 C 202.523438 296.269531 204.476562 296.195312 206.429688 296.070312 C 208.382812 295.941406 210.328125 295.761719 212.269531 295.523438 C 214.210938 295.28125 216.140625 294.988281 218.066406 294.640625 C 219.988281 294.289062 221.902344 293.886719 223.804688 293.429688 C 225.703125 292.96875 227.589844 292.457031 229.460938 291.890625 C 231.332031 291.324219 233.1875 290.703125 235.023438 290.027344 C 236.859375 289.355469 238.675781 288.632812 240.46875 287.855469 C 242.265625 287.078125 244.035156 286.25 245.78125 285.371094 C 247.527344 284.492188 249.25 283.5625 250.945312 282.585938 C 252.636719 281.609375 254.300781 280.585938 255.9375 279.511719 C 257.574219 278.441406 259.175781 277.320312 260.746094 276.15625 C 262.316406 274.992188 263.855469 273.785156 265.355469 272.53125 C 266.859375 271.277344 268.324219 269.984375 269.75 268.648438 C 271.179688 267.3125 272.566406 265.9375 273.914062 264.519531 C 275.265625 263.105469 276.570312 261.652344 277.835938 260.160156 C 279.101562 258.667969 280.324219 257.144531 281.503906 255.582031 C 282.679688 254.023438 283.8125 252.429688 284.898438 250.804688 C 285.988281 249.175781 287.027344 247.523438 288.019531 245.835938 C 289.011719 244.152344 289.953125 242.4375 290.847656 240.699219 C 291.742188 238.960938 292.585938 237.195312 293.378906 235.410156 C 294.171875 233.621094 294.910156 231.8125 295.601562 229.984375 C 296.289062 228.152344 296.925781 226.304688 297.507812 224.4375 C 298.09375 222.570312 298.621094 220.691406 299.097656 218.792969 C 299.574219 216.894531 299.996094 214.988281 300.359375 213.066406 C 300.726562 211.144531 301.039062 209.214844 301.292969 207.277344 C 301.546875 205.335938 301.75 203.394531 301.894531 201.441406 C 302.035156 199.492188 302.125 197.539062 302.15625 195.585938 C 302.191406 193.628906 302.167969 191.675781 302.085938 189.722656 C 302.007812 187.765625 301.871094 185.816406 301.679688 183.871094 C 301.488281 181.925781 301.242188 179.984375 300.9375 178.054688 C 300.636719 176.121094 300.277344 174.199219 299.867188 172.289062 C 299.453125 170.375 298.984375 168.480469 298.464844 166.59375 C 297.945312 164.710938 297.367188 162.839844 296.738281 160.988281 C 296.113281 159.136719 295.429688 157.304688 294.699219 155.492188 C 293.964844 153.679688 293.179688 151.890625 292.34375 150.121094 C 291.507812 148.351562 290.621094 146.609375 289.683594 144.894531 C 288.75 143.175781 287.765625 141.488281 286.734375 139.828125 C 285.699219 138.167969 284.621094 136.535156 283.496094 134.9375 C 282.367188 133.339844 281.199219 131.773438 279.980469 130.242188 C 278.765625 128.710938 277.507812 127.214844 276.207031 125.753906 C 274.90625 124.296875 273.5625 122.875 272.179688 121.492188 C 269.8125 119.125 267.335938 116.875 264.746094 114.75 C 262.160156 112.628906 259.472656 110.632812 256.6875 108.773438 C 253.90625 106.910156 251.035156 105.191406 248.082031 103.609375 C 245.132812 102.03125 242.109375 100.601562 239.015625 99.316406 C 235.921875 98.035156 232.773438 96.90625 229.570312 95.929688 C 226.367188 94.957031 223.121094 94.140625 219.839844 93.484375 C 216.554688 92.828125 213.246094 92.335938 209.914062 92.003906 C 206.582031 91.671875 203.242188 91.503906 199.890625 91.503906 M 199.890625 78.71875 C 201.777344 78.71875 203.65625 78.765625 205.539062 78.859375 C 207.417969 78.949219 209.296875 79.089844 211.167969 79.273438 C 213.042969 79.457031 214.910156 79.6875 216.773438 79.964844 C 218.636719 80.242188 220.492188 80.5625 222.335938 80.929688 C 224.183594 81.296875 226.019531 81.710938 227.847656 82.167969 C 229.671875 82.625 231.488281 83.125 233.289062 83.671875 C 235.089844 84.21875 236.878906 84.808594 238.652344 85.445312 C 240.421875 86.078125 242.179688 86.757812 243.917969 87.476562 C 245.660156 88.195312 247.378906 88.960938 249.082031 89.765625 C 250.785156 90.570312 252.464844 91.417969 254.125 92.304688 C 255.785156 93.191406 257.421875 94.117188 259.039062 95.085938 C 260.652344 96.054688 262.242188 97.0625 263.808594 98.109375 C 265.375 99.152344 266.914062 100.238281 268.425781 101.359375 C 269.9375 102.480469 271.421875 103.640625 272.878906 104.832031 C 274.332031 106.027344 275.757812 107.257812 277.152344 108.523438 C 278.546875 109.785156 279.910156 111.085938 281.242188 112.414062 C 282.574219 113.746094 283.871094 115.109375 285.136719 116.503906 C 286.402344 117.898438 287.628906 119.324219 288.824219 120.78125 C 290.019531 122.238281 291.179688 123.71875 292.300781 125.234375 C 293.421875 126.746094 294.503906 128.285156 295.550781 129.847656 C 296.597656 131.414062 297.605469 133.003906 298.570312 134.621094 C 299.539062 136.234375 300.46875 137.871094 301.355469 139.535156 C 302.242188 141.195312 303.089844 142.875 303.894531 144.578125 C 304.699219 146.277344 305.460938 148 306.183594 149.738281 C 306.902344 151.480469 307.582031 153.234375 308.214844 155.007812 C 308.847656 156.78125 309.4375 158.566406 309.984375 160.371094 C 310.53125 162.171875 311.035156 163.984375 311.492188 165.8125 C 311.949219 167.636719 312.363281 169.476562 312.730469 171.320312 C 313.097656 173.167969 313.417969 175.023438 313.695312 176.886719 C 313.972656 178.746094 314.203125 180.617188 314.386719 182.488281 C 314.570312 184.363281 314.707031 186.242188 314.800781 188.121094 C 314.894531 190 314.941406 191.882812 314.941406 193.765625 C 314.941406 195.648438 314.894531 197.53125 314.800781 199.410156 C 314.707031 201.292969 314.570312 203.167969 314.386719 205.042969 C 314.203125 206.917969 313.972656 208.785156 313.695312 210.648438 C 313.417969 212.507812 313.097656 214.363281 312.730469 216.210938 C 312.363281 218.058594 311.949219 219.894531 311.492188 221.71875 C 311.035156 223.546875 310.53125 225.359375 309.984375 227.164062 C 309.4375 228.964844 308.847656 230.75 308.214844 232.523438 C 307.582031 234.296875 306.902344 236.054688 306.183594 237.792969 C 305.460938 239.53125 304.699219 241.253906 303.894531 242.957031 C 303.089844 244.65625 302.242188 246.339844 301.355469 248 C 300.46875 249.660156 299.539062 251.296875 298.570312 252.914062 C 297.605469 254.527344 296.597656 256.117188 295.550781 257.683594 C 294.503906 259.25 293.421875 260.789062 292.300781 262.300781 C 291.179688 263.8125 290.019531 265.296875 288.824219 266.75 C 287.628906 268.207031 286.402344 269.632812 285.136719 271.027344 C 283.871094 272.421875 282.574219 273.785156 281.242188 275.117188 C 279.910156 276.449219 278.546875 277.746094 277.152344 279.011719 C 275.757812 280.273438 274.332031 281.503906 272.878906 282.699219 C 271.421875 283.894531 269.9375 285.050781 268.425781 286.171875 C 266.914062 287.292969 265.375 288.378906 263.808594 289.425781 C 262.242188 290.46875 260.652344 291.476562 259.039062 292.445312 C 257.421875 293.414062 255.785156 294.339844 254.125 295.230469 C 252.464844 296.117188 250.785156 296.960938 249.082031 297.769531 C 247.378906 298.574219 245.660156 299.335938 243.917969 300.054688 C 242.179688 300.777344 240.421875 301.453125 238.652344 302.089844 C 236.878906 302.722656 235.089844 303.3125 233.289062 303.859375 C 231.488281 304.40625 229.671875 304.90625 227.847656 305.367188 C 226.019531 305.824219 224.183594 306.234375 222.335938 306.601562 C 220.492188 306.96875 218.636719 307.292969 216.773438 307.566406 C 214.910156 307.84375 213.042969 308.074219 211.167969 308.257812 C 209.296875 308.445312 207.417969 308.582031 205.539062 308.675781 C 203.65625 308.765625 201.777344 308.8125 199.890625 308.8125 C 198.007812 308.8125 196.128906 308.765625 194.246094 308.675781 C 192.367188 308.582031 190.488281 308.445312 188.617188 308.257812 C 186.742188 308.074219 184.875 307.84375 183.011719 307.566406 C 181.148438 307.292969 179.292969 306.96875 177.449219 306.601562 C 175.601562 306.234375 173.765625 305.824219 171.9375 305.367188 C 170.113281 304.90625 168.296875 304.40625 166.496094 303.859375 C 164.695312 303.3125 162.90625 302.722656 161.132812 302.089844 C 159.363281 301.453125 157.605469 300.777344 155.867188 300.054688 C 154.125 299.335938 152.40625 298.574219 150.703125 297.769531 C 149 296.960938 147.320312 296.117188 145.660156 295.230469 C 144 294.339844 142.363281 293.414062 140.746094 292.445312 C 139.132812 291.476562 137.542969 290.46875 135.976562 289.425781 C 134.410156 288.378906 132.871094 287.292969 131.359375 286.171875 C 129.847656 285.050781 128.363281 283.894531 126.90625 282.699219 C 125.453125 281.503906 124.027344 280.273438 122.632812 279.011719 C 121.238281 277.746094 119.875 276.449219 118.542969 275.117188 C 117.210938 273.785156 115.914062 272.421875 114.648438 271.027344 C 113.382812 269.632812 112.15625 268.207031 110.960938 266.75 C 109.765625 265.296875 108.605469 263.8125 107.484375 262.300781 C 106.363281 260.789062 105.28125 259.25 104.234375 257.683594 C 103.1875 256.117188 102.179688 254.527344 101.214844 252.914062 C 100.246094 251.296875 99.316406 249.660156 98.429688 248 C 97.542969 246.339844 96.695312 244.65625 95.890625 242.957031 C 95.085938 241.253906 94.324219 239.53125 93.601562 237.792969 C 92.882812 236.054688 92.203125 234.296875 91.570312 232.523438 C 90.9375 230.75 90.347656 228.964844 89.800781 227.164062 C 89.253906 225.359375 88.75 223.546875 88.292969 221.71875 C 87.835938 219.894531 87.421875 218.058594 87.054688 216.210938 C 86.6875 214.363281 86.367188 212.507812 86.089844 210.648438 C 85.8125 208.785156 85.582031 206.917969 85.398438 205.042969 C 85.214844 203.167969 85.078125 201.292969 84.984375 199.410156 C 84.890625 197.53125 84.84375 195.648438 84.84375 193.765625 C 84.847656 191.882812 84.894531 190.003906 84.988281 188.121094 C 85.085938 186.242188 85.222656 184.367188 85.410156 182.492188 C 85.597656 180.621094 85.828125 178.753906 86.105469 176.890625 C 86.386719 175.03125 86.707031 173.175781 87.078125 171.332031 C 87.445312 169.484375 87.859375 167.648438 88.316406 165.824219 C 88.777344 164 89.28125 162.183594 89.828125 160.382812 C 90.375 158.582031 90.96875 156.796875 91.601562 155.023438 C 92.238281 153.253906 92.914062 151.496094 93.636719 149.757812 C 94.359375 148.019531 95.121094 146.300781 95.925781 144.601562 C 96.734375 142.898438 97.578125 141.21875 98.46875 139.558594 C 99.355469 137.898438 100.285156 136.261719 101.25 134.648438 C 102.21875 133.035156 103.226562 131.445312 104.273438 129.878906 C 105.320312 128.316406 106.402344 126.777344 107.523438 125.265625 C 108.648438 123.753906 109.804688 122.269531 111 120.816406 C 112.191406 119.359375 113.421875 117.9375 114.6875 116.542969 C 115.949219 115.148438 117.25 113.785156 118.578125 112.453125 C 119.910156 111.121094 121.273438 109.824219 122.667969 108.558594 C 124.0625 107.296875 125.488281 106.066406 126.941406 104.871094 C 128.398438 103.679688 129.878906 102.519531 131.390625 101.398438 C 132.902344 100.277344 134.441406 99.195312 136.007812 98.148438 C 137.570312 97.101562 139.160156 96.09375 140.773438 95.125 C 142.386719 94.15625 144.023438 93.230469 145.683594 92.339844 C 147.34375 91.453125 149.023438 90.605469 150.726562 89.800781 C 152.425781 88.996094 154.148438 88.230469 155.886719 87.511719 C 157.625 86.789062 159.378906 86.109375 161.152344 85.476562 C 162.921875 84.839844 164.710938 84.25 166.511719 83.703125 C 168.3125 83.152344 170.125 82.652344 171.949219 82.191406 C 173.773438 81.734375 175.609375 81.320312 177.457031 80.949219 C 179.300781 80.582031 181.15625 80.257812 183.019531 79.980469 C 184.878906 79.703125 186.746094 79.472656 188.621094 79.285156 C 190.492188 79.097656 192.371094 78.957031 194.25 78.863281 C 196.128906 78.769531 198.011719 78.722656 199.890625 78.71875 Z M 199.890625 78.71875 " fill-opacity="1" fill-rule="nonzero"/></g><path fill="#386641" d="M 174.328125 168.199219 C 174.328125 169.039062 174.246094 169.871094 174.082031 170.695312 C 173.917969 171.515625 173.675781 172.316406 173.351562 173.09375 C 173.03125 173.867188 172.636719 174.605469 172.171875 175.300781 C 171.707031 176 171.175781 176.644531 170.582031 177.238281 C 169.988281 177.832031 169.34375 178.363281 168.644531 178.828125 C 167.949219 179.296875 167.210938 179.6875 166.433594 180.011719 C 165.660156 180.332031 164.859375 180.574219 164.039062 180.738281 C 163.214844 180.902344 162.382812 180.984375 161.542969 180.984375 C 160.703125 180.984375 159.871094 180.902344 159.050781 180.738281 C 158.226562 180.574219 157.425781 180.332031 156.652344 180.011719 C 155.875 179.6875 155.140625 179.296875 154.441406 178.828125 C 153.742188 178.363281 153.097656 177.832031 152.503906 177.238281 C 151.910156 176.644531 151.382812 176 150.914062 175.300781 C 150.449219 174.605469 150.054688 173.867188 149.734375 173.09375 C 149.414062 172.316406 149.167969 171.515625 149.007812 170.695312 C 148.84375 169.871094 148.761719 169.039062 148.761719 168.199219 C 148.761719 167.359375 148.84375 166.53125 149.007812 165.707031 C 149.167969 164.882812 149.414062 164.082031 149.734375 163.308594 C 150.054688 162.53125 150.449219 161.796875 150.914062 161.097656 C 151.382812 160.402344 151.910156 159.753906 152.503906 159.160156 C 153.097656 158.566406 153.742188 158.039062 154.441406 157.570312 C 155.140625 157.105469 155.875 156.710938 156.652344 156.390625 C 157.425781 156.070312 158.226562 155.828125 159.050781 155.664062 C 159.871094 155.5 160.703125 155.417969 161.542969 155.417969 C 162.382812 155.417969 163.214844 155.5 164.039062 155.664062 C 164.859375 155.828125 165.660156 156.070312 166.433594 156.390625 C 167.210938 156.710938 167.949219 157.105469 168.644531 157.570312 C 169.34375 158.039062 169.988281 158.566406 170.582031 159.160156 C 171.175781 159.753906 171.707031 160.402344 172.171875 161.097656 C 172.636719 161.796875 173.03125 162.53125 173.351562 163.308594 C 173.675781 164.082031 173.917969 164.882812 174.082031 165.707031 C 174.246094 166.53125 174.328125 167.359375 174.328125 168.199219 Z M 174.328125 168.199219 " fill-opacity="1" fill-rule="nonzero"/><path fill="#386641" d="M 251.023438 168.199219 C 251.023438 169.039062 250.941406 169.871094 250.777344 170.695312 C 250.617188 171.515625 250.371094 172.316406 250.050781 173.09375 C 249.730469 173.867188 249.335938 174.605469 248.871094 175.300781 C 248.402344 176 247.875 176.644531 247.28125 177.238281 C 246.6875 177.832031 246.042969 178.363281 245.34375 178.828125 C 244.644531 179.296875 243.910156 179.6875 243.132812 180.011719 C 242.359375 180.332031 241.558594 180.574219 240.734375 180.738281 C 239.914062 180.902344 239.082031 180.984375 238.242188 180.984375 C 237.402344 180.984375 236.570312 180.902344 235.746094 180.738281 C 234.925781 180.574219 234.125 180.332031 233.351562 180.011719 C 232.574219 179.6875 231.835938 179.296875 231.140625 178.828125 C 230.441406 178.363281 229.796875 177.832031 229.203125 177.238281 C 228.609375 176.644531 228.078125 176 227.613281 175.300781 C 227.148438 174.605469 226.753906 173.867188 226.433594 173.09375 C 226.109375 172.316406 225.867188 171.515625 225.703125 170.695312 C 225.539062 169.871094 225.457031 169.039062 225.457031 168.199219 C 225.457031 167.359375 225.539062 166.53125 225.703125 165.707031 C 225.867188 164.882812 226.109375 164.082031 226.433594 163.308594 C 226.753906 162.53125 227.148438 161.796875 227.613281 161.097656 C 228.078125 160.402344 228.609375 159.753906 229.203125 159.160156 C 229.796875 158.566406 230.441406 158.039062 231.140625 157.570312 C 231.835938 157.105469 232.574219 156.710938 233.351562 156.390625 C 234.125 156.070312 234.925781 155.828125 235.746094 155.664062 C 236.570312 155.5 237.402344 155.417969 238.242188 155.417969 C 239.082031 155.417969 239.914062 155.5 240.734375 155.664062 C 241.558594 155.828125 242.359375 156.070312 243.132812 156.390625 C 243.910156 156.710938 244.644531 157.105469 245.34375 157.570312 C 246.042969 158.039062 246.6875 158.566406 247.28125 159.160156 C 247.875 159.753906 248.402344 160.402344 248.871094 161.097656 C 249.335938 161.796875 249.730469 162.53125 250.050781 163.308594 C 250.371094 164.082031 250.617188 164.882812 250.777344 165.707031 C 250.941406 166.53125 251.023438 167.359375 251.023438 168.199219 Z M 251.023438 168.199219 " fill-opacity="1" fill-rule="nonzero"/><path fill="#386641" d="M 141.140625 226.960938 C 140.84375 226.664062 140.578125 226.34375 140.347656 225.996094 C 140.113281 225.644531 139.917969 225.277344 139.757812 224.890625 C 139.59375 224.5 139.472656 224.101562 139.390625 223.691406 C 139.308594 223.277344 139.269531 222.863281 139.269531 222.441406 C 139.269531 222.023438 139.308594 221.609375 139.390625 221.195312 C 139.472656 220.785156 139.59375 220.386719 139.757812 219.996094 C 139.917969 219.609375 140.113281 219.242188 140.347656 218.890625 C 140.578125 218.542969 140.84375 218.21875 141.140625 217.921875 C 141.4375 217.628906 141.761719 217.363281 142.109375 217.128906 C 142.460938 216.894531 142.828125 216.699219 143.214844 216.539062 C 143.601562 216.378906 144.003906 216.257812 144.414062 216.175781 C 144.824219 216.09375 145.242188 216.050781 145.660156 216.050781 C 146.082031 216.050781 146.496094 216.09375 146.90625 216.175781 C 147.320312 216.257812 147.71875 216.378906 148.105469 216.539062 C 148.496094 216.699219 148.863281 216.894531 149.210938 217.128906 C 149.5625 217.363281 149.882812 217.628906 150.179688 217.921875 C 150.996094 218.734375 151.828125 219.527344 152.679688 220.300781 C 153.535156 221.070312 154.40625 221.820312 155.296875 222.550781 C 156.1875 223.28125 157.09375 223.984375 158.015625 224.671875 C 158.941406 225.355469 159.882812 226.015625 160.839844 226.65625 C 161.796875 227.292969 162.769531 227.90625 163.753906 228.496094 C 164.742188 229.089844 165.742188 229.65625 166.757812 230.195312 C 167.773438 230.738281 168.800781 231.253906 169.839844 231.746094 C 170.882812 232.238281 171.933594 232.703125 172.996094 233.140625 C 174.058594 233.582031 175.132812 233.996094 176.214844 234.382812 C 177.296875 234.769531 178.390625 235.128906 179.492188 235.460938 C 180.59375 235.796875 181.699219 236.101562 182.816406 236.382812 C 183.933594 236.660156 185.054688 236.910156 186.183594 237.136719 C 187.3125 237.359375 188.445312 237.554688 189.582031 237.726562 C 190.71875 237.894531 191.859375 238.035156 193.003906 238.144531 C 194.148438 238.257812 195.296875 238.34375 196.445312 238.398438 C 197.59375 238.457031 198.746094 238.484375 199.894531 238.484375 C 201.046875 238.484375 202.195312 238.457031 203.34375 238.398438 C 204.492188 238.34375 205.640625 238.257812 206.785156 238.144531 C 207.929688 238.035156 209.070312 237.894531 210.207031 237.726562 C 211.347656 237.554688 212.480469 237.359375 213.605469 237.136719 C 214.734375 236.910156 215.859375 236.660156 216.972656 236.382812 C 218.089844 236.101562 219.199219 235.796875 220.296875 235.460938 C 221.398438 235.128906 222.492188 234.769531 223.574219 234.382812 C 224.65625 233.996094 225.730469 233.582031 226.792969 233.140625 C 227.855469 232.703125 228.910156 232.238281 229.949219 231.746094 C 230.988281 231.253906 232.015625 230.738281 233.03125 230.195312 C 234.046875 229.65625 235.046875 229.089844 236.035156 228.496094 C 237.019531 227.90625 237.992188 227.292969 238.949219 226.65625 C 239.90625 226.015625 240.847656 225.355469 241.773438 224.671875 C 242.695312 223.984375 243.605469 223.28125 244.492188 222.550781 C 245.382812 221.820312 246.253906 221.070312 247.109375 220.300781 C 247.960938 219.527344 248.792969 218.734375 249.609375 217.921875 C 249.90625 217.628906 250.230469 217.363281 250.578125 217.128906 C 250.925781 216.894531 251.296875 216.699219 251.683594 216.539062 C 252.070312 216.378906 252.46875 216.257812 252.882812 216.175781 C 253.292969 216.09375 253.707031 216.050781 254.128906 216.050781 C 254.546875 216.050781 254.964844 216.09375 255.375 216.175781 C 255.789062 216.257812 256.1875 216.378906 256.574219 216.539062 C 256.960938 216.699219 257.332031 216.894531 257.679688 217.128906 C 258.027344 217.363281 258.351562 217.628906 258.648438 217.921875 C 258.945312 218.21875 259.210938 218.542969 259.441406 218.890625 C 259.675781 219.242188 259.871094 219.609375 260.035156 219.996094 C 260.195312 220.386719 260.316406 220.785156 260.398438 221.195312 C 260.480469 221.609375 260.519531 222.023438 260.519531 222.441406 C 260.519531 222.863281 260.480469 223.277344 260.398438 223.691406 C 260.316406 224.101562 260.195312 224.5 260.035156 224.890625 C 259.871094 225.277344 259.675781 225.644531 259.441406 225.996094 C 259.210938 226.34375 258.945312 226.664062 258.648438 226.960938 C 257.6875 227.921875 256.699219 228.859375 255.691406 229.769531 C 254.683594 230.683594 253.652344 231.570312 252.601562 232.429688 C 251.550781 233.292969 250.480469 234.128906 249.386719 234.9375 C 248.292969 235.746094 247.183594 236.527344 246.050781 237.28125 C 244.921875 238.035156 243.769531 238.761719 242.605469 239.460938 C 241.4375 240.15625 240.253906 240.828125 239.054688 241.464844 C 237.855469 242.105469 236.640625 242.71875 235.414062 243.296875 C 234.183594 243.878906 232.941406 244.429688 231.683594 244.949219 C 230.429688 245.46875 229.160156 245.957031 227.878906 246.414062 C 226.601562 246.871094 225.308594 247.296875 224.007812 247.691406 C 222.707031 248.085938 221.398438 248.445312 220.078125 248.777344 C 218.761719 249.105469 217.433594 249.402344 216.101562 249.667969 C 214.765625 249.933594 213.429688 250.164062 212.082031 250.363281 C 210.738281 250.5625 209.390625 250.730469 208.035156 250.863281 C 206.683594 250.996094 205.328125 251.09375 203.96875 251.164062 C 202.613281 251.230469 201.253906 251.261719 199.894531 251.261719 C 198.535156 251.261719 197.175781 251.230469 195.820312 251.164062 C 194.460938 251.09375 193.105469 250.996094 191.753906 250.863281 C 190.398438 250.730469 189.050781 250.5625 187.707031 250.363281 C 186.363281 250.164062 185.023438 249.933594 183.6875 249.667969 C 182.355469 249.402344 181.03125 249.105469 179.710938 248.777344 C 178.390625 248.445312 177.082031 248.085938 175.78125 247.691406 C 174.480469 247.296875 173.191406 246.871094 171.910156 246.414062 C 170.628906 245.957031 169.359375 245.46875 168.105469 244.949219 C 166.847656 244.429688 165.605469 243.878906 164.375 243.296875 C 163.148438 242.71875 161.933594 242.105469 160.734375 241.464844 C 159.535156 240.828125 158.351562 240.15625 157.183594 239.460938 C 156.019531 238.761719 154.871094 238.035156 153.738281 237.28125 C 152.609375 236.527344 151.496094 235.746094 150.402344 234.9375 C 149.3125 234.128906 148.238281 233.292969 147.1875 232.429688 C 146.136719 231.570312 145.105469 230.683594 144.097656 229.769531 C 143.089844 228.859375 142.105469 227.921875 141.140625 226.960938 Z M 141.140625 226.960938 " fill-opacity="1" fill-rule="nonzero"/></svg>