<svg xmlns="http://www.w3.org/2000/svg" xmlns:xlink="http://www.w3.org/1999/xlink" width="534" zoomAndPan="magnify" viewBox="0 0 400.5 388.499989" height="518" preserveAspectRatio="xMidYMid meet" version="1.0"><defs><clipPath id="82f5efde67"><path d="M 84.84375 78.71875 L 314.800781 78.71875 L 314.800781 308.671875 L 84.84375 308.671875 Z M 84.84375 78.71875 " clip-rule="nonzero"/></clipPath></defs><g clip-path="url(#82f5efde67)"><path fill="#386641" d="M 150.035156 78.71875 L 249.75 78.71875 C 288.914062 78.71875 314.941406 106.671875 314.941406 146.789062 L 314.941406 240.742188 C 314.941406 280.863281 288.914062 308.8125 249.742188 308.8125 L 150.035156 308.8125 C 110.871094 308.8125 84.84375 280.859375 84.84375 240.742188 L 84.84375 146.789062 C 84.84375 106.707031 110.933594 78.71875 150.035156 78.71875 Z M 249.75 96.011719 L 150.035156 96.011719 C 120.765625 96.011719 102.140625 115.996094 102.140625 146.789062 L 102.140625 240.742188 C 102.140625 249.316406 103.574219 257.046875 106.277344 263.738281 L 119.511719 247.675781 L 125.355469 240.46875 C 140.070312 222.234375 153.5625 214.359375 171.230469 221.761719 C 173.914062 222.886719 176.207031 224.101562 179.144531 225.914062 L 186.746094 230.820312 C 194.335938 235.628906 197.949219 236.320312 203.5 233.3125 C 208.433594 230.644531 211.894531 226.910156 217.160156 218.808594 L 220.613281 213.3125 L 222.960938 209.542969 C 225.074219 206.207031 226.578125 204.015625 228.421875 201.632812 C 240.59375 185.875 259.578125 180.742188 276.171875 190.726562 C 283.359375 195.058594 288.578125 199.355469 297.644531 208.007812 L 297.644531 146.789062 C 297.644531 115.957031 279.078125 96.011719 249.75 96.011719 Z M 297.644531 231.902344 L 297.082031 231.398438 C 295.882812 230.292969 294.601562 229.085938 293.0625 227.609375 L 285.015625 219.867188 C 277.300781 212.539062 272.886719 208.941406 267.25 205.542969 C 258.726562 200.414062 249.234375 202.980469 242.109375 212.203125 L 240.667969 214.144531 C 240.1875 214.8125 239.703125 215.523438 239.175781 216.316406 L 234.671875 223.460938 C 226.179688 237.222656 221.023438 243.496094 211.734375 248.519531 C 200.292969 254.71875 190.972656 253.433594 179.636719 246.742188 L 174.597656 243.554688 L 170.359375 240.820312 C 168.007812 239.359375 166.324219 238.457031 164.542969 237.710938 C 156.832031 234.480469 149.976562 238.050781 140.511719 249.269531 L 119.730469 274.660156 C 118.609375 276.019531 117.449219 277.421875 116.246094 278.875 C 124.492188 286.976562 136.035156 291.519531 150.035156 291.519531 L 249.742188 291.519531 C 279.074219 291.519531 297.644531 271.574219 297.644531 240.742188 Z M 133.984375 156.949219 C 133.984375 140.425781 147.386719 127.019531 163.902344 127.019531 C 180.425781 127.019531 193.832031 140.425781 193.832031 156.949219 C 193.832031 173.472656 180.425781 186.878906 163.902344 186.878906 C 147.386719 186.878906 133.984375 173.472656 133.984375 156.949219 Z M 176.539062 156.949219 C 176.539062 149.976562 170.875 144.3125 163.902344 144.3125 C 156.941406 144.3125 151.277344 149.976562 151.277344 156.949219 C 151.277344 163.921875 156.941406 169.585938 163.902344 169.585938 C 170.875 169.585938 176.539062 163.921875 176.539062 156.949219 Z M 176.539062 156.949219 " fill-opacity="1" fill-rule="evenodd"/></g></svg>