<svg xmlns="http://www.w3.org/2000/svg" xmlns:xlink="http://www.w3.org/1999/xlink" width="534" zoomAndPan="magnify" viewBox="0 0 400.5 388.499989" height="518" preserveAspectRatio="xMidYMid meet" version="1.0"><defs><clipPath id="5f62336a73"><path d="M 84.84375 78.71875 L 314.800781 78.71875 L 314.800781 308.671875 L 84.84375 308.671875 Z M 84.84375 78.71875 " clip-rule="nonzero"/></clipPath></defs><g clip-path="url(#5f62336a73)"><path fill="#386641" d="M 199.890625 78.71875 C 198.007812 78.71875 196.128906 78.765625 194.246094 78.859375 C 192.367188 78.949219 190.488281 79.089844 188.617188 79.273438 C 186.742188 79.457031 184.875 79.6875 183.011719 79.964844 C 181.148438 80.242188 179.292969 80.5625 177.449219 80.929688 C 175.601562 81.296875 173.765625 81.710938 171.9375 82.167969 C 170.113281 82.625 168.296875 83.125 166.496094 83.671875 C 164.695312 84.21875 162.90625 84.808594 161.132812 85.445312 C 159.363281 86.078125 157.605469 86.757812 155.867188 87.476562 C 154.125 88.195312 152.40625 88.960938 150.703125 89.765625 C 149 90.570312 147.320312 91.417969 145.660156 92.304688 C 144 93.191406 142.363281 94.117188 140.746094 95.085938 C 139.132812 96.054688 137.542969 97.0625 135.976562 98.109375 C 134.410156 99.152344 132.871094 100.238281 131.359375 101.359375 C 129.847656 102.480469 128.363281 103.640625 126.90625 104.832031 C 125.453125 106.027344 124.027344 107.257812 122.632812 108.523438 C 121.238281 109.785156 119.875 111.085938 118.542969 112.414062 C 117.210938 113.746094 115.914062 115.109375 114.648438 116.503906 C 113.382812 117.898438 112.15625 119.324219 110.960938 120.78125 C 109.765625 122.238281 108.605469 123.71875 107.484375 125.234375 C 106.363281 126.746094 105.28125 128.285156 104.234375 129.847656 C 103.1875 131.414062 102.179688 133.003906 101.214844 134.621094 C 100.246094 136.234375 99.316406 137.871094 98.429688 139.535156 C 97.542969 141.195312 96.695312 142.875 95.890625 144.578125 C 95.085938 146.277344 94.324219 148 93.601562 149.738281 C 92.882812 151.480469 92.203125 153.234375 91.570312 155.007812 C 90.9375 156.78125 90.347656 158.566406 89.800781 160.371094 C 89.253906 162.171875 88.75 163.984375 88.292969 165.8125 C 87.835938 167.636719 87.421875 169.476562 87.054688 171.320312 C 86.6875 173.167969 86.367188 175.023438 86.089844 176.886719 C 85.8125 178.746094 85.582031 180.617188 85.398438 182.488281 C 85.214844 184.363281 85.078125 186.242188 84.984375 188.121094 C 84.890625 190 84.84375 191.882812 84.84375 193.765625 C 84.84375 195.648438 84.890625 197.53125 84.984375 199.410156 C 85.078125 201.292969 85.214844 203.167969 85.398438 205.042969 C 85.582031 206.917969 85.8125 208.785156 86.089844 210.648438 C 86.367188 212.507812 86.6875 214.363281 87.054688 216.210938 C 87.421875 218.058594 87.835938 219.894531 88.292969 221.71875 C 88.75 223.546875 89.253906 225.359375 89.800781 227.164062 C 90.347656 228.964844 90.9375 230.75 91.570312 232.523438 C 92.203125 234.296875 92.882812 236.054688 93.601562 237.792969 C 94.324219 239.53125 95.085938 241.253906 95.890625 242.957031 C 96.695312 244.65625 97.542969 246.339844 98.429688 248 C 99.316406 249.660156 100.246094 251.296875 101.214844 252.914062 C 102.179688 254.527344 103.1875 256.117188 104.234375 257.683594 C 105.28125 259.25 106.363281 260.789062 107.484375 262.300781 C 108.605469 263.8125 109.765625 265.296875 110.960938 266.75 C 112.15625 268.207031 113.382812 269.632812 114.648438 271.027344 C 115.914062 272.421875 117.210938 273.785156 118.542969 275.117188 C 119.875 276.449219 121.238281 277.746094 122.632812 279.011719 C 124.027344 280.273438 125.453125 281.503906 126.90625 282.699219 C 128.363281 283.894531 129.847656 285.050781 131.359375 286.171875 C 132.871094 287.292969 134.410156 288.378906 135.976562 289.425781 C 137.542969 290.46875 139.132812 291.476562 140.746094 292.445312 C 142.363281 293.414062 144 294.339844 145.660156 295.230469 C 147.320312 296.117188 149 296.960938 150.703125 297.769531 C 152.40625 298.574219 154.125 299.335938 155.867188 300.054688 C 157.605469 300.777344 159.363281 301.453125 161.132812 302.089844 C 162.90625 302.722656 164.695312 303.3125 166.496094 303.859375 C 168.296875 304.40625 170.113281 304.90625 171.9375 305.367188 C 173.765625 305.824219 175.601562 306.234375 177.449219 306.601562 C 179.292969 306.96875 181.148438 307.292969 183.011719 307.566406 C 184.875 307.84375 186.742188 308.074219 188.617188 308.257812 C 190.488281 308.445312 192.367188 308.582031 194.246094 308.675781 C 196.128906 308.765625 198.007812 308.8125 199.890625 308.8125 C 201.777344 308.8125 203.65625 308.765625 205.539062 308.675781 C 207.417969 308.582031 209.296875 308.445312 211.167969 308.257812 C 213.042969 308.074219 214.910156 307.84375 216.773438 307.566406 C 218.636719 307.292969 220.492188 306.96875 222.335938 306.601562 C 224.183594 306.234375 226.019531 305.824219 227.847656 305.367188 C 229.671875 304.90625 231.488281 304.40625 233.289062 303.859375 C 235.089844 303.3125 236.878906 302.722656 238.652344 302.089844 C 240.421875 301.453125 242.179688 300.777344 243.917969 300.054688 C 245.660156 299.335938 247.378906 298.574219 249.082031 297.769531 C 250.785156 296.960938 252.464844 296.117188 254.125 295.230469 C 255.785156 294.339844 257.421875 293.414062 259.039062 292.445312 C 260.652344 291.476562 262.242188 290.46875 263.808594 289.425781 C 265.375 288.378906 266.914062 287.292969 268.425781 286.171875 C 269.9375 285.050781 271.421875 283.894531 272.878906 282.699219 C 274.332031 281.503906 275.757812 280.273438 277.152344 279.011719 C 278.546875 277.746094 279.910156 276.449219 281.242188 275.117188 C 282.574219 273.785156 283.871094 272.421875 285.136719 271.027344 C 286.402344 269.632812 287.628906 268.207031 288.824219 266.75 C 290.019531 265.296875 291.179688 263.8125 292.300781 262.300781 C 293.421875 260.789062 294.503906 259.25 295.550781 257.683594 C 296.597656 256.117188 297.605469 254.527344 298.570312 252.914062 C 299.539062 251.296875 300.46875 249.660156 301.355469 248 C 302.242188 246.339844 303.089844 244.65625 303.894531 242.957031 C 304.699219 241.253906 305.460938 239.53125 306.183594 237.792969 C 306.902344 236.054688 307.582031 234.296875 308.214844 232.523438 C 308.847656 230.75 309.4375 228.964844 309.984375 227.164062 C 310.53125 225.359375 311.035156 223.546875 311.492188 221.71875 C 311.949219 219.894531 312.363281 218.058594 312.730469 216.210938 C 313.097656 214.363281 313.417969 212.507812 313.695312 210.648438 C 313.972656 208.785156 314.203125 206.917969 314.386719 205.042969 C 314.570312 203.167969 314.707031 201.292969 314.800781 199.410156 C 314.894531 197.53125 314.941406 195.648438 314.941406 193.765625 C 314.941406 191.882812 314.894531 190 314.800781 188.121094 C 314.707031 186.242188 314.570312 184.363281 314.386719 182.488281 C 314.203125 180.617188 313.972656 178.746094 313.695312 176.886719 C 313.417969 175.023438 313.097656 173.167969 312.730469 171.320312 C 312.363281 169.476562 311.949219 167.636719 311.492188 165.8125 C 311.035156 163.984375 310.53125 162.171875 309.984375 160.371094 C 309.4375 158.566406 308.847656 156.78125 308.214844 155.007812 C 307.582031 153.234375 306.902344 151.480469 306.183594 149.738281 C 305.460938 148 304.699219 146.277344 303.894531 144.578125 C 303.089844 142.875 302.242188 141.195312 301.355469 139.535156 C 300.46875 137.871094 299.539062 136.234375 298.570312 134.621094 C 297.605469 133.003906 296.597656 131.414062 295.550781 129.847656 C 294.503906 128.285156 293.421875 126.746094 292.300781 125.234375 C 291.179688 123.71875 290.019531 122.238281 288.824219 120.78125 C 287.628906 119.324219 286.402344 117.898438 285.136719 116.503906 C 283.871094 115.109375 282.574219 113.746094 281.242188 112.414062 C 279.910156 111.085938 278.546875 109.785156 277.152344 108.523438 C 275.757812 107.257812 274.332031 106.027344 272.878906 104.832031 C 271.421875 103.640625 269.9375 102.480469 268.425781 101.359375 C 266.914062 100.238281 265.375 99.152344 263.808594 98.109375 C 262.242188 97.0625 260.652344 96.054688 259.039062 95.085938 C 257.421875 94.117188 255.785156 93.191406 254.125 92.304688 C 252.464844 91.417969 250.785156 90.570312 249.082031 89.765625 C 247.378906 88.960938 245.660156 88.195312 243.917969 87.476562 C 242.179688 86.757812 240.421875 86.078125 238.652344 85.445312 C 236.878906 84.808594 235.089844 84.21875 233.289062 83.671875 C 231.488281 83.125 229.671875 82.625 227.847656 82.167969 C 226.019531 81.710938 224.183594 81.296875 222.335938 80.929688 C 220.492188 80.5625 218.636719 80.242188 216.773438 79.964844 C 214.910156 79.6875 213.042969 79.457031 211.167969 79.273438 C 209.296875 79.089844 207.417969 78.949219 205.539062 78.859375 C 203.65625 78.765625 201.777344 78.71875 199.890625 78.71875 Z M 212.546875 251.289062 C 212.546875 252.121094 212.464844 252.945312 212.304688 253.757812 C 212.140625 254.574219 211.902344 255.363281 211.585938 256.132812 C 211.265625 256.902344 210.875 257.628906 210.414062 258.320312 C 209.953125 259.011719 209.429688 259.652344 208.839844 260.238281 C 208.253906 260.824219 207.613281 261.351562 206.921875 261.8125 C 206.234375 262.273438 205.503906 262.664062 204.734375 262.980469 C 203.96875 263.300781 203.175781 263.539062 202.363281 263.703125 C 201.546875 263.863281 200.722656 263.945312 199.890625 263.945312 C 199.0625 263.945312 198.238281 263.863281 197.421875 263.703125 C 196.609375 263.539062 195.816406 263.300781 195.050781 262.980469 C 194.28125 262.664062 193.550781 262.273438 192.863281 261.8125 C 192.171875 261.351562 191.53125 260.824219 190.945312 260.238281 C 190.355469 259.652344 189.832031 259.011719 189.371094 258.320312 C 188.910156 257.628906 188.519531 256.902344 188.199219 256.132812 C 187.882812 255.363281 187.644531 254.574219 187.480469 253.757812 C 187.320312 252.945312 187.238281 252.121094 187.238281 251.289062 L 187.238281 181.339844 C 187.238281 180.511719 187.320312 179.6875 187.480469 178.871094 C 187.644531 178.058594 187.882812 177.265625 188.199219 176.5 C 188.519531 175.730469 188.910156 175 189.371094 174.308594 C 189.832031 173.621094 190.355469 172.980469 190.945312 172.394531 C 191.53125 171.804688 192.171875 171.28125 192.863281 170.820312 C 193.550781 170.355469 194.28125 169.96875 195.050781 169.648438 C 195.816406 169.332031 196.609375 169.089844 197.421875 168.929688 C 198.238281 168.765625 199.0625 168.6875 199.890625 168.6875 C 200.722656 168.6875 201.546875 168.765625 202.363281 168.929688 C 203.175781 169.089844 203.96875 169.332031 204.734375 169.648438 C 205.503906 169.96875 206.234375 170.355469 206.921875 170.820312 C 207.613281 171.28125 208.253906 171.804688 208.839844 172.394531 C 209.429688 172.980469 209.953125 173.621094 210.414062 174.308594 C 210.875 175 211.265625 175.730469 211.585938 176.5 C 211.902344 177.265625 212.140625 178.058594 212.304688 178.871094 C 212.464844 179.6875 212.546875 180.511719 212.546875 181.339844 Z M 199.890625 147.746094 C 198.863281 147.746094 197.847656 147.648438 196.839844 147.445312 C 195.832031 147.246094 194.855469 146.949219 193.90625 146.554688 C 192.957031 146.164062 192.054688 145.679688 191.199219 145.109375 C 190.34375 144.539062 189.554688 143.890625 188.828125 143.164062 C 188.101562 142.4375 187.453125 141.648438 186.882812 140.792969 C 186.3125 139.9375 185.832031 139.039062 185.4375 138.089844 C 185.042969 137.140625 184.746094 136.160156 184.546875 135.152344 C 184.347656 134.144531 184.246094 133.128906 184.246094 132.101562 C 184.246094 131.074219 184.347656 130.054688 184.546875 129.046875 C 184.746094 128.039062 185.042969 127.0625 185.4375 126.113281 C 185.832031 125.164062 186.3125 124.261719 186.882812 123.410156 C 187.453125 122.554688 188.101562 121.765625 188.828125 121.039062 C 189.554688 120.3125 190.34375 119.664062 191.199219 119.089844 C 192.054688 118.519531 192.957031 118.039062 193.90625 117.644531 C 194.855469 117.253906 195.832031 116.957031 196.839844 116.753906 C 197.847656 116.554688 198.863281 116.453125 199.890625 116.453125 C 200.921875 116.453125 201.9375 116.554688 202.945312 116.753906 C 203.953125 116.957031 204.929688 117.253906 205.878906 117.644531 C 206.828125 118.039062 207.730469 118.519531 208.585938 119.089844 C 209.441406 119.664062 210.230469 120.3125 210.957031 121.039062 C 211.683594 121.765625 212.332031 122.554688 212.902344 123.410156 C 213.472656 124.261719 213.953125 125.164062 214.347656 126.113281 C 214.742188 127.0625 215.039062 128.039062 215.238281 129.046875 C 215.4375 130.054688 215.539062 131.074219 215.539062 132.101562 C 215.539062 133.128906 215.4375 134.144531 215.238281 135.152344 C 215.039062 136.160156 214.742188 137.140625 214.347656 138.089844 C 213.953125 139.039062 213.472656 139.9375 212.902344 140.792969 C 212.332031 141.648438 211.683594 142.4375 210.957031 143.164062 C 210.230469 143.890625 209.441406 144.539062 208.585938 145.109375 C 207.730469 145.679688 206.828125 146.164062 205.878906 146.554688 C 204.929688 146.949219 203.953125 147.246094 202.945312 147.445312 C 201.9375 147.648438 200.921875 147.746094 199.890625 147.746094 Z M 199.890625 147.746094 " fill-opacity="1" fill-rule="nonzero"/></g></svg>