<svg xmlns="http://www.w3.org/2000/svg" xmlns:xlink="http://www.w3.org/1999/xlink" width="534" zoomAndPan="magnify" viewBox="0 0 400.5 388.499989" height="518" preserveAspectRatio="xMidYMid meet" version="1.0"><defs><clipPath id="10093264d6"><path d="M 155 78.71875 L 244 78.71875 L 244 226 L 155 226 Z M 155 78.71875 " clip-rule="nonzero"/></clipPath><clipPath id="aafa0027fc"><path d="M 119.359375 172 L 279 172 L 279 308.671875 L 119.359375 308.671875 Z M 119.359375 172 " clip-rule="nonzero"/></clipPath></defs><g clip-path="url(#10093264d6)"><path fill="#386641" d="M 199.304688 225.625 C 200.753906 225.625 202.199219 225.554688 203.640625 225.414062 C 205.082031 225.269531 206.515625 225.058594 207.9375 224.773438 C 209.359375 224.492188 210.761719 224.140625 212.148438 223.71875 C 213.535156 223.300781 214.898438 222.8125 216.238281 222.257812 C 217.578125 221.703125 218.882812 221.082031 220.164062 220.402344 C 221.441406 219.71875 222.683594 218.972656 223.886719 218.167969 C 225.09375 217.363281 226.253906 216.5 227.375 215.582031 C 228.496094 214.660156 229.566406 213.691406 230.59375 212.664062 C 231.617188 211.640625 232.589844 210.566406 233.507812 209.449219 C 234.429688 208.328125 235.289062 207.164062 236.09375 205.960938 C 236.902344 204.753906 237.644531 203.511719 238.328125 202.234375 C 239.011719 200.957031 239.628906 199.648438 240.183594 198.308594 C 240.738281 196.972656 241.226562 195.609375 241.648438 194.222656 C 242.066406 192.835938 242.421875 191.429688 242.703125 190.007812 C 242.984375 188.585938 243.199219 187.15625 243.339844 185.714844 C 243.480469 184.273438 243.554688 182.824219 243.554688 181.375 L 243.554688 122.378906 C 243.554688 120.929688 243.480469 119.484375 243.339844 118.039062 C 243.199219 116.597656 242.984375 115.167969 242.703125 113.746094 C 242.421875 112.324219 242.066406 110.921875 241.648438 109.53125 C 241.226562 108.144531 240.738281 106.785156 240.183594 105.445312 C 239.628906 104.105469 239.011719 102.796875 238.328125 101.519531 C 237.644531 100.242188 236.902344 99 236.09375 97.792969 C 235.289062 96.589844 234.429688 95.425781 233.507812 94.308594 C 232.589844 93.1875 231.617188 92.113281 230.59375 91.089844 C 229.566406 90.066406 228.496094 89.09375 227.375 88.171875 C 226.253906 87.253906 225.09375 86.390625 223.886719 85.585938 C 222.683594 84.78125 221.441406 84.035156 220.164062 83.355469 C 218.882812 82.671875 217.578125 82.050781 216.238281 81.496094 C 214.898438 80.941406 213.535156 80.457031 212.148438 80.035156 C 210.761719 79.613281 209.359375 79.261719 207.9375 78.980469 C 206.515625 78.695312 205.082031 78.484375 203.640625 78.34375 C 202.199219 78.199219 200.753906 78.128906 199.304688 78.128906 C 197.855469 78.128906 196.410156 78.199219 194.96875 78.34375 C 193.523438 78.484375 192.09375 78.695312 190.671875 78.980469 C 189.25 79.261719 187.847656 79.613281 186.460938 80.035156 C 185.074219 80.457031 183.710938 80.941406 182.371094 81.496094 C 181.03125 82.050781 179.722656 82.671875 178.445312 83.355469 C 177.167969 84.035156 175.925781 84.78125 174.71875 85.585938 C 173.515625 86.390625 172.351562 87.253906 171.234375 88.171875 C 170.113281 89.09375 169.039062 90.066406 168.015625 91.089844 C 166.992188 92.113281 166.019531 93.1875 165.097656 94.308594 C 164.179688 95.425781 163.316406 96.589844 162.511719 97.792969 C 161.707031 99 160.964844 100.242188 160.28125 101.519531 C 159.597656 102.796875 158.976562 104.105469 158.421875 105.445312 C 157.867188 106.785156 157.382812 108.144531 156.960938 109.53125 C 156.539062 110.921875 156.1875 112.324219 155.90625 113.746094 C 155.621094 115.167969 155.410156 116.597656 155.269531 118.039062 C 155.125 119.484375 155.054688 120.929688 155.054688 122.378906 L 155.054688 181.375 C 155.054688 182.824219 155.125 184.269531 155.269531 185.714844 C 155.410156 187.15625 155.621094 188.585938 155.90625 190.007812 C 156.1875 191.429688 156.539062 192.835938 156.960938 194.222656 C 157.382812 195.609375 157.867188 196.972656 158.421875 198.308594 C 158.976562 199.648438 159.597656 200.957031 160.28125 202.234375 C 160.964844 203.511719 161.707031 204.753906 162.511719 205.960938 C 163.316406 207.164062 164.179688 208.328125 165.097656 209.449219 C 166.019531 210.566406 166.992188 211.640625 168.015625 212.664062 C 169.039062 213.691406 170.113281 214.664062 171.234375 215.582031 C 172.351562 216.5 173.515625 217.363281 174.71875 218.167969 C 175.925781 218.972656 177.167969 219.71875 178.445312 220.402344 C 179.722656 221.082031 181.03125 221.703125 182.371094 222.257812 C 183.710938 222.8125 185.074219 223.300781 186.460938 223.71875 C 187.847656 224.140625 189.25 224.492188 190.671875 224.773438 C 192.09375 225.058594 193.523438 225.269531 194.96875 225.414062 C 196.410156 225.554688 197.855469 225.625 199.304688 225.625 Z M 172.753906 122.378906 C 172.753906 121.507812 172.796875 120.640625 172.882812 119.777344 C 172.96875 118.910156 173.09375 118.050781 173.265625 117.199219 C 173.433594 116.34375 173.644531 115.503906 173.898438 114.671875 C 174.148438 113.839844 174.441406 113.019531 174.777344 112.21875 C 175.109375 111.414062 175.480469 110.628906 175.890625 109.863281 C 176.300781 109.097656 176.746094 108.351562 177.230469 107.628906 C 177.710938 106.90625 178.230469 106.207031 178.78125 105.535156 C 179.332031 104.863281 179.914062 104.21875 180.53125 103.605469 C 181.144531 102.988281 181.789062 102.40625 182.460938 101.855469 C 183.132812 101.304688 183.832031 100.785156 184.554688 100.304688 C 185.277344 99.820312 186.023438 99.375 186.789062 98.964844 C 187.554688 98.554688 188.339844 98.183594 189.144531 97.847656 C 189.949219 97.515625 190.765625 97.222656 191.597656 96.972656 C 192.429688 96.71875 193.273438 96.507812 194.125 96.339844 C 194.976562 96.167969 195.835938 96.042969 196.703125 95.957031 C 197.566406 95.871094 198.433594 95.828125 199.304688 95.828125 C 200.171875 95.828125 201.039062 95.871094 201.90625 95.957031 C 202.773438 96.042969 203.628906 96.167969 204.484375 96.339844 C 205.335938 96.507812 206.179688 96.71875 207.011719 96.972656 C 207.84375 97.222656 208.660156 97.515625 209.464844 97.847656 C 210.265625 98.183594 211.050781 98.554688 211.820312 98.964844 C 212.585938 99.375 213.332031 99.820312 214.054688 100.304688 C 214.777344 100.785156 215.472656 101.304688 216.148438 101.855469 C 216.820312 102.40625 217.460938 102.988281 218.078125 103.605469 C 218.691406 104.21875 219.273438 104.863281 219.828125 105.535156 C 220.378906 106.207031 220.894531 106.90625 221.378906 107.628906 C 221.863281 108.351562 222.308594 109.097656 222.71875 109.863281 C 223.128906 110.628906 223.5 111.414062 223.832031 112.21875 C 224.164062 113.019531 224.457031 113.839844 224.710938 114.671875 C 224.960938 115.503906 225.171875 116.34375 225.34375 117.199219 C 225.511719 118.050781 225.640625 118.910156 225.726562 119.777344 C 225.8125 120.640625 225.851562 121.507812 225.851562 122.378906 L 225.851562 181.375 C 225.851562 182.246094 225.8125 183.113281 225.726562 183.980469 C 225.640625 184.84375 225.511719 185.703125 225.34375 186.554688 C 225.171875 187.410156 224.960938 188.25 224.710938 189.082031 C 224.457031 189.914062 224.164062 190.734375 223.832031 191.535156 C 223.5 192.339844 223.128906 193.125 222.71875 193.890625 C 222.308594 194.660156 221.863281 195.402344 221.378906 196.125 C 220.894531 196.847656 220.378906 197.546875 219.828125 198.21875 C 219.273438 198.890625 218.691406 199.535156 218.078125 200.148438 C 217.460938 200.765625 216.820312 201.347656 216.148438 201.898438 C 215.472656 202.449219 214.777344 202.96875 214.054688 203.453125 C 213.332031 203.933594 212.585938 204.382812 211.820312 204.789062 C 211.050781 205.199219 210.265625 205.570312 209.464844 205.90625 C 208.660156 206.238281 207.84375 206.53125 207.011719 206.78125 C 206.179688 207.035156 205.335938 207.246094 204.484375 207.414062 C 203.628906 207.585938 202.773438 207.710938 201.90625 207.796875 C 201.039062 207.882812 200.171875 207.925781 199.304688 207.925781 C 198.433594 207.925781 197.566406 207.882812 196.703125 207.796875 C 195.835938 207.710938 194.976562 207.585938 194.125 207.414062 C 193.273438 207.246094 192.429688 207.035156 191.597656 206.78125 C 190.765625 206.53125 189.949219 206.238281 189.144531 205.90625 C 188.339844 205.570312 187.554688 205.199219 186.789062 204.789062 C 186.023438 204.382812 185.277344 203.933594 184.554688 203.453125 C 183.832031 202.96875 183.132812 202.449219 182.460938 201.898438 C 181.789062 201.347656 181.144531 200.765625 180.53125 200.148438 C 179.914062 199.535156 179.332031 198.890625 178.78125 198.21875 C 178.230469 197.546875 177.710938 196.847656 177.230469 196.125 C 176.746094 195.402344 176.300781 194.660156 175.890625 193.890625 C 175.480469 193.125 175.109375 192.339844 174.777344 191.535156 C 174.441406 190.734375 174.148438 189.914062 173.898438 189.082031 C 173.644531 188.25 173.433594 187.410156 173.265625 186.554688 C 173.09375 185.703125 172.96875 184.84375 172.882812 183.980469 C 172.796875 183.113281 172.753906 182.246094 172.753906 181.375 Z M 172.753906 122.378906 " fill-opacity="1" fill-rule="nonzero"/></g><g clip-path="url(#aafa0027fc)"><path fill="#386641" d="M 278.953125 181.375 C 278.953125 180.796875 278.894531 180.21875 278.78125 179.648438 C 278.667969 179.082031 278.5 178.527344 278.277344 177.988281 C 278.054688 177.453125 277.785156 176.941406 277.460938 176.460938 C 277.136719 175.976562 276.769531 175.53125 276.359375 175.117188 C 275.949219 174.707031 275.503906 174.339844 275.019531 174.019531 C 274.535156 173.695312 274.027344 173.421875 273.488281 173.199219 C 272.953125 172.976562 272.398438 172.808594 271.828125 172.695312 C 271.257812 172.582031 270.683594 172.527344 270.101562 172.527344 C 269.519531 172.527344 268.945312 172.582031 268.375 172.695312 C 267.804688 172.808594 267.253906 172.976562 266.714844 173.199219 C 266.179688 173.421875 265.667969 173.695312 265.1875 174.019531 C 264.703125 174.339844 264.253906 174.707031 263.84375 175.117188 C 263.433594 175.53125 263.066406 175.976562 262.742188 176.460938 C 262.421875 176.941406 262.148438 177.453125 261.925781 177.988281 C 261.703125 178.527344 261.535156 179.082031 261.421875 179.648438 C 261.308594 180.21875 261.253906 180.796875 261.253906 181.375 C 261.253906 183.40625 261.152344 185.429688 260.953125 187.449219 C 260.753906 189.46875 260.457031 191.472656 260.0625 193.460938 C 259.667969 195.453125 259.175781 197.417969 258.585938 199.359375 C 257.996094 201.300781 257.3125 203.207031 256.535156 205.082031 C 255.761719 206.957031 254.894531 208.789062 253.9375 210.578125 C 252.980469 212.367188 251.941406 214.105469 250.8125 215.792969 C 249.683594 217.480469 248.476562 219.109375 247.191406 220.675781 C 245.902344 222.246094 244.542969 223.746094 243.109375 225.179688 C 241.671875 226.617188 240.171875 227.976562 238.605469 229.261719 C 237.035156 230.550781 235.40625 231.757812 233.722656 232.886719 C 232.035156 234.011719 230.296875 235.054688 228.507812 236.011719 C 226.71875 236.964844 224.886719 237.832031 223.011719 238.609375 C 221.136719 239.386719 219.226562 240.070312 217.285156 240.65625 C 215.34375 241.246094 213.378906 241.738281 211.390625 242.132812 C 209.398438 242.53125 207.394531 242.828125 205.375 243.027344 C 203.355469 243.226562 201.332031 243.324219 199.304688 243.324219 C 197.273438 243.324219 195.25 243.226562 193.230469 243.027344 C 191.210938 242.828125 189.207031 242.53125 187.21875 242.132812 C 185.230469 241.738281 183.261719 241.246094 181.320312 240.65625 C 179.378906 240.070312 177.472656 239.386719 175.597656 238.609375 C 173.722656 237.832031 171.890625 236.964844 170.101562 236.011719 C 168.3125 235.054688 166.574219 234.011719 164.886719 232.886719 C 163.199219 231.757812 161.574219 230.550781 160.003906 229.261719 C 158.4375 227.976562 156.933594 226.617188 155.5 225.179688 C 154.066406 223.746094 152.703125 222.246094 151.417969 220.675781 C 150.128906 219.109375 148.921875 217.480469 147.796875 215.792969 C 146.667969 214.105469 145.625 212.367188 144.671875 210.578125 C 143.714844 208.789062 142.847656 206.957031 142.070312 205.082031 C 141.292969 203.207031 140.613281 201.300781 140.023438 199.359375 C 139.433594 197.417969 138.941406 195.453125 138.546875 193.460938 C 138.148438 191.472656 137.851562 189.46875 137.652344 187.449219 C 137.453125 185.429688 137.355469 183.40625 137.355469 181.375 C 137.355469 180.796875 137.296875 180.21875 137.183594 179.648438 C 137.070312 179.082031 136.902344 178.527344 136.683594 177.988281 C 136.460938 177.453125 136.1875 176.941406 135.863281 176.460938 C 135.542969 175.976562 135.175781 175.53125 134.761719 175.117188 C 134.351562 174.707031 133.90625 174.339844 133.421875 174.019531 C 132.9375 173.695312 132.429688 173.421875 131.890625 173.199219 C 131.355469 172.976562 130.800781 172.808594 130.230469 172.695312 C 129.664062 172.582031 129.085938 172.527344 128.503906 172.527344 C 127.925781 172.527344 127.347656 172.582031 126.777344 172.695312 C 126.210938 172.808594 125.65625 172.976562 125.117188 173.199219 C 124.582031 173.421875 124.070312 173.695312 123.589844 174.019531 C 123.105469 174.339844 122.660156 174.707031 122.246094 175.117188 C 121.835938 175.53125 121.46875 175.976562 121.148438 176.460938 C 120.824219 176.941406 120.550781 177.453125 120.328125 177.988281 C 120.105469 178.527344 119.9375 179.082031 119.824219 179.648438 C 119.710938 180.21875 119.65625 180.796875 119.65625 181.375 C 119.660156 183.800781 119.769531 186.21875 119.992188 188.628906 C 120.21875 191.042969 120.550781 193.441406 120.992188 195.824219 C 121.433594 198.207031 121.980469 200.5625 122.636719 202.894531 C 123.292969 205.226562 124.054688 207.527344 124.917969 209.789062 C 125.785156 212.050781 126.753906 214.269531 127.820312 216.445312 C 128.886719 218.621094 130.050781 220.742188 131.3125 222.8125 C 132.574219 224.882812 133.925781 226.886719 135.371094 228.832031 C 136.816406 230.78125 138.34375 232.65625 139.960938 234.460938 C 141.574219 236.269531 143.269531 237.996094 145.042969 239.648438 C 146.816406 241.300781 148.660156 242.867188 150.574219 244.351562 C 152.492188 245.835938 154.46875 247.230469 156.511719 248.535156 C 158.554688 249.835938 160.652344 251.042969 162.804688 252.15625 C 164.957031 253.269531 167.15625 254.28125 169.402344 255.195312 C 171.644531 256.105469 173.925781 256.914062 176.246094 257.617188 C 178.566406 258.320312 180.910156 258.917969 183.285156 259.410156 C 185.65625 259.898438 188.046875 260.28125 190.453125 260.550781 L 190.453125 299.375 C 190.453125 299.953125 190.511719 300.53125 190.625 301.101562 C 190.738281 301.671875 190.90625 302.222656 191.128906 302.761719 C 191.351562 303.296875 191.621094 303.808594 191.945312 304.289062 C 192.269531 304.773438 192.636719 305.21875 193.046875 305.632812 C 193.457031 306.042969 193.902344 306.410156 194.386719 306.730469 C 194.871094 307.054688 195.378906 307.328125 195.917969 307.550781 C 196.453125 307.773438 197.007812 307.941406 197.578125 308.054688 C 198.148438 308.167969 198.722656 308.222656 199.304688 308.222656 C 199.886719 308.222656 200.460938 308.167969 201.03125 308.054688 C 201.601562 307.941406 202.152344 307.773438 202.691406 307.550781 C 203.226562 307.328125 203.738281 307.054688 204.21875 306.730469 C 204.703125 306.410156 205.152344 306.042969 205.5625 305.632812 C 205.972656 305.21875 206.339844 304.773438 206.664062 304.289062 C 206.984375 303.808594 207.257812 303.296875 207.480469 302.761719 C 207.703125 302.222656 207.871094 301.671875 207.984375 301.101562 C 208.097656 300.53125 208.152344 299.953125 208.152344 299.375 L 208.152344 260.550781 C 210.5625 260.28125 212.953125 259.898438 215.324219 259.410156 C 217.699219 258.917969 220.042969 258.320312 222.363281 257.617188 C 224.679688 256.914062 226.960938 256.105469 229.207031 255.195312 C 231.453125 254.28125 233.652344 253.269531 235.804688 252.15625 C 237.957031 251.042969 240.054688 249.835938 242.097656 248.535156 C 244.136719 247.230469 246.117188 245.835938 248.03125 244.351562 C 249.949219 242.867188 251.792969 241.300781 253.566406 239.648438 C 255.339844 237.996094 257.03125 236.269531 258.648438 234.460938 C 260.261719 232.65625 261.792969 230.78125 263.234375 228.832031 C 264.679688 226.886719 266.03125 224.882812 267.292969 222.8125 C 268.554688 220.742188 269.71875 218.621094 270.789062 216.445312 C 271.855469 214.269531 272.824219 212.050781 273.6875 209.789062 C 274.554688 207.527344 275.316406 205.226562 275.972656 202.894531 C 276.628906 200.5625 277.175781 198.207031 277.617188 195.824219 C 278.058594 193.441406 278.390625 191.042969 278.613281 188.628906 C 278.835938 186.21875 278.949219 183.800781 278.953125 181.375 Z M 278.953125 181.375 " fill-opacity="1" fill-rule="nonzero"/></g></svg>