<svg xmlns="http://www.w3.org/2000/svg" xmlns:xlink="http://www.w3.org/1999/xlink" width="534" zoomAndPan="magnify" viewBox="0 0 400.5 388.499989" height="518" preserveAspectRatio="xMidYMid meet" version="1.0"><defs><clipPath id="1bab57e174"><path d="M 85 88.550781 L 314.800781 88.550781 L 314.800781 299 L 85 299 Z M 85 88.550781 " clip-rule="nonzero"/></clipPath></defs><g clip-path="url(#1bab57e174)"><path fill="#386641" d="M 201.992188 259.382812 L 199.074219 176.777344 L 280.761719 125.082031 Z M 119.238281 106.125 L 275.921875 107.78125 L 190.414062 161.902344 Z M 313.285156 95.367188 C 311.726562 92.726562 308.871094 91.070312 305.789062 91.035156 L 302.542969 91.003906 L 302.507812 90.953125 L 302.425781 91.003906 L 94.195312 88.804688 C 90.488281 88.773438 87.207031 91.035156 85.992188 94.464844 C 84.78125 97.875 85.910156 101.710938 88.8125 103.976562 L 181.738281 176.777344 L 185.707031 289.722656 C 185.835938 293.527344 188.527344 296.808594 192.300781 297.761719 C 192.300781 297.761719 192.316406 297.761719 192.316406 297.777344 C 196.070312 298.710938 199.972656 297.105469 201.910156 293.824219 L 313.300781 103.878906 C 314.839844 101.253906 314.839844 98.007812 313.285156 95.367188 " fill-opacity="1" fill-rule="nonzero"/></g></svg>